# xmcd CD database file
#
# Track frame offsets:
#	150
#	13303
#	25432
#	41393
#	54317
#	68300
#	77719
#	90218
#	102435
#	118530
#	130682
#	142064
#	154644
#	167292
#	180274
#	192558
#	206836
#	218313
#
# Disc length: 3075 seconds
#
# Revision: 0
# Processed by: cddbd v1.5.1PL2 Copyright (c) Steve Scherf et al.
# Submitted via: CDex 1.51
#
DISCID=e00c0112
DTITLE=Sonny Terry - Back Home Blues
DYEAR=2000
DGENRE=Blues
TTITLE0=Back Home Blues
TTITLE1=You Got To Have Your Dollar
TTITLE2=Lonesome Train
TTITLE3=Shakedown Blues
TTITLE4=Sweet Woman
TTITLE5=Fox Chase
TTITLE6=Train Whistle Blues
TTITLE7=No Love Blues
TTITLE8=The New John Henry
TTITLE9=Harmonica Blues
TTITLE10=Harmonica and Washboard Breakdown
TTITLE11=Somebody's Been Talkin'
TTITLE12=Harmonica Stomp
TTITLE13=Blowin' the Blues
TTITLE14=Bus Rider Blues
TTITLE15=Mountain Blues
TTITLE16=Mean And No Good Woman
TTITLE17=Working Man's Blues
EXTD=YEAR: 2000
EXTT0=
EXTT1=
EXTT2=
EXTT3=
EXTT4=
EXTT5=
EXTT6=
EXTT7=
EXTT8=
EXTT9=
EXTT10=
EXTT11=
EXTT12=
EXTT13=
EXTT14=
EXTT15=
EXTT16=
EXTT17=
PLAYORDER=
